<?xml version="1.0" encoding="utf-8"?>
<!-- Generator: Adobe Illustrator 19.2.1, SVG Export Plug-In . SVG Version: 6.00 Build 0)  -->
<svg version="1.1" id="layer" xmlns="http://www.w3.org/2000/svg" xmlns:xlink="http://www.w3.org/1999/xlink" x="0px" y="0px"
	 viewBox="0 0 652 652" style="enable-background:new 0 0 652 652;" xml:space="preserve">
<style type="text/css">
	.st0{fill:#FFFFFF;}
	.st1{fill:#FFFFFF;}
</style>
<g>
	<path class="st0" d="M483.8,327.5c-17.6-3.1-56.6-4.6-105.9,7.7c-2.4,8.2-12.2,16.5-16.5,23.9c61.8-20.5,112.3-18.3,132.7-12.2
		C494.3,341.1,482.2,333.3,483.8,327.5"/>
	<path class="st0" d="M337.6,106.4l-9.9,5c15.2-13.3,24.5,102.7-1.1,211.8c0,0-99.4,22.1-140.7,55c-0.1,0.1,0.3,3.8,0.3,3.8
		c74.6-44.6,150.4-37.2,150.4-37.2C377.8,212.8,344.6,108,337.6,106.4"/>
	<path class="st1" d="M165.7,523h10l21.1,49.6h-11.3l-4.5-11h-20.8l-4.5,11h-11.1L165.7,523z M177.1,552l-6.5-16l-6.5,16H177.1z"/>
	<polygon class="st1" points="211.4,523.4 222.2,523.4 222.2,562.8 246.8,562.8 246.8,572.6 211.4,572.6 	"/>
	<polygon class="st1" points="287.3,523.4 299,523.4 311.9,544.2 324.9,523.4 336.6,523.4 336.6,572.6 325.8,572.6 325.8,540.5 
		311.9,561.5 311.7,561.5 297.9,540.7 297.9,572.6 287.3,572.6 	"/>
	<rect x="355.9" y="523.4" class="st1" width="10.8" height="49.2"/>
	<polygon class="st1" points="386.1,523.4 396.1,523.4 419.2,553.7 419.2,523.4 429.9,523.4 429.9,572.6 420.6,572.6 396.8,541.3 
		396.8,572.6 386.1,572.6 	"/>
	<path class="st1" d="M465.6,523h10l21.1,49.6h-11.3l-4.5-11H460l-4.5,11h-11L465.6,523z M477,552l-6.5-16l-6.5,16H477z"/>
	<path class="st1" d="M251.3,439.9c-74.4,22.1-114.8,14.5-121.5,13.5c3.9,0.7,43.9,26,135.1-2.1
		C260.7,447.3,251.3,439.9,251.3,439.9"/>
	<path class="st1" d="M317.4,419l-10.8,18.9c101.2-41.5,170.2-35.7,170.2-35.7c-40.7,49.6-160.7,67.6-238.9,69
		c91.3,4.1,223.1-5.5,277.4-85.6C515.2,385.6,442.1,367.4,317.4,419"/>
	<path class="st1" d="M282.5,422.8l-13.3-9.1l-11.9,20.1l15,11.6c0,0,8.9-13.9,9.9-15.1c2.9,2.4,12.4,9.5,12.4,9.5l11.4-18.7
		l-13.5-11.9C289.2,413.7,285.9,418.2,282.5,422.8"/>
	<path class="st1" d="M157,423.3c4-2.3,8.7-4.8,7.6-9.8c-4,1.7-7.7,3.5-11.5,4.8c-6.7,2.2-17.2-0.3-15-6c4.3-7.7,11-4.8,17-3.5
		c3.1-6.2,1.4-10-4.4-10.4c-16-1.1-21.2,12.8-21.5,19.2c-0.3,7.9,4.4,10.5,5.2,11.1c-2.7,3.9-6.1,8.4-8.3,14.2
		C127.3,442.8,145.6,429.9,157,423.3"/>
	<path class="st1" d="M180.7,403.5c7.6,7.9,19.4,10.4,30.3,9.2c9.5-1.1,18.5-4.6,27.3-8.4c5.9-2.6,14.4-10.3,20.7-5.1
		c1.5,1.3,2.6,3.1,4.2,4.3c2.1,1.6,4.8,1.9,7.4,1.6c10.2-1.4,20.6-7.7,29.2-13.1c3.2-2,6.5-3.9,10.2-2c0.9,0.5,1.8,1.1,2.6,1.6
		c0.9,0.6,1.8,1.2,2.8,1.5c2.7,1,5.8,0.7,8.4-0.4c3.6-1.5,6.5-4.3,9.1-7.2c2.7-2.8,5.5-6.8,9.2-8.3c5.7-2.3,10.9,4.1,15.9,6
		c4.7,1.9,9.9,2.2,13.7-1.6c8-8,8.1-18.6-1.2-25.5c11.8-13.7,49.9-192.3-32.6-274.8c0,0,136.6,67.9,136.2,244.7l20.1,20.7
		c1-220.5-166.7-274.3-166.7-274.3c84.8,130.4,29.8,270.9,18.1,291.2c-2.9,5.1-11.3,12.7-17.7,10.3c-2.1-0.8-3.8-2.5-5.7-3.6
		c-5-2.9-10.6-1.4-15.2,1.5c-2.8,1.8-5.3,4.6-7.9,6.7c-3.9,3.2-8,5.9-12.7,7.6c-2.4,0.9-4.8,1.3-7.3,0.1c-2-0.9-3.5-2.6-5.1-4.1
		c-4.5-4.1-10.6-4-15.8-1.3c-19.9,10.4-62.7,25.9-66.7-9.7c-2.9-25.9,1.1-54.1,6.8-79.3c5.9-25.7,15.3-50.6,27.9-73.7
		c25.6-46.7,64.6-86,111.2-112c-43.6,16.2-81.4,46.6-109,84c-27.6,37.5-45.3,81.7-54.2,127.4c-3.8,19.4-6,39.3-3.7,59
		C171.5,386.5,173.9,396.5,180.7,403.5"/>
	<path class="st1" d="M243,368.9c0,0,12.4-19.3,13.4-20.5L240,337.2l-11.9,20.1L243,368.9z"/>
</g>
</svg>
